<svg id="Capa_1" enable-background="new 0 0 512 512" height="512" viewBox="0 0 512 512" width="512" xmlns="http://www.w3.org/2000/svg"><g><g><g><path d="m435.2 297.86c-4.267 0-7.726-3.459-7.726-7.726v-34.134c0-4.267 3.459-7.726 7.726-7.726s7.726 3.459 7.726 7.726v34.133c.001 4.267-3.459 7.727-7.726 7.727z" fill="#d3ced5"/></g></g><path d="m452.267 330.431h-34.133v-32.297c0-4.418 3.582-8 8-8h18.133c4.418 0 8 3.582 8 8z" fill="#f4f2f4"/><g fill="#a7dda7"><path d="m494.933 367.088v-26.338c0-9.103-7.38-16.483-16.483-16.483h-86.5c-9.103 0-16.483 7.38-16.483 16.483v26.338z"/><path d="m375.467 417.979h119.467v65.039h-119.467z"/></g><g fill="#8ace9b"><path d="m471.239 340.75v26.338h23.694v-26.338c0-9.103-7.38-16.483-16.483-16.483h-23.694c9.103 0 16.483 7.379 16.483 16.483z"/><path d="m471.239 417.979h23.694v65.039h-23.694z"/></g><path d="m58.667 238.933h224c8.837 0 16 7.163 16 16v63.908h-256v-63.908c0-8.836 7.163-16 16-16z" fill="#cb835d"/><path d="m256 313.347h-68.267v-24.28c0-8.836 7.163-16 16-16h36.267c8.837 0 16 7.164 16 16z" fill="#e2dfe2"/><path d="m282.184 238.933h-23.694c9.103 0 16.483 7.38 16.483 16.483v63.425h23.694v-63.425c0-9.103-7.38-16.483-16.483-16.483z" fill="#be7558"/><path d="m239.517 273.067h-23.694c9.103 0 16.483 7.38 16.483 16.483v23.797h23.694v-23.797c0-9.104-7.38-16.483-16.483-16.483z" fill="#d3ced5"/><path d="m153.6 313.347h-68.267v-24.28c0-8.836 7.163-16 16-16h36.267c8.837 0 16 7.164 16 16z" fill="#e2dfe2"/><path d="m137.117 273.067h-23.694c9.103 0 16.483 7.38 16.483 16.483v23.797h23.694v-23.797c0-9.104-7.38-16.483-16.483-16.483z" fill="#d3ced5"/><path d="m41.6 307.2h258.133c8.837 0 16 7.163 16 16v40.351h-290.133v-40.351c0-8.837 7.163-16 16-16z" fill="#f4f2f4"/><path d="m299.25 307.2h-23.402c9.103 0 16.483 7.38 16.483 16.483v39.868h23.402v-39.868c0-9.103-7.379-16.483-16.483-16.483z" fill="#e2dfe2"/><path d="m273.067 477.869-8.534-34.134v-8.31h42.667v47.389h-33.91z" fill="#be7558"/><path d="m68.267 477.869 8.533-34.134v-8.31h-42.667v47.389h33.911z" fill="#be7558"/><path d="m316.267 443.733h-291.2c-4.418 0-8-3.582-8-8v-48.351h307.2v48.351c0 4.419-3.582 8-8 8z" fill="#cb835d"/><path d="m486.933 426.667h-103.466c-4.418 0-8-3.582-8-8v-52.267c0-4.418 3.582-8 8-8h103.467c4.418 0 8 3.582 8 8v52.267c-.001 4.418-3.582 8-8.001 8z" fill="#f4f2f4"/><g><g><path d="m443.733 400.26h-17.067c-4.267 0-7.726-3.459-7.726-7.726s3.459-7.726 7.726-7.726h17.067c4.267 0 7.726 3.459 7.726 7.726.001 4.266-3.459 7.726-7.726 7.726z" fill="#d3ced5"/></g></g><path d="m359.467 204.8h-275.2c-8.837 0-16-7.163-16-16v-172.8c0-8.837 7.163-16 16-16h275.2c8.837 0 16 7.163 16 16v172.8c0 8.837-7.164 16-16 16z" fill="#efd27c"/><path d="m136.533 170.667h-25.892c-4.552 0-8.241-3.69-8.241-8.241v-120.051c0-4.552 3.69-8.242 8.241-8.242h222.45c4.552 0 8.241 3.69 8.241 8.242v94.158z" fill="#a5cdfc"/><ellipse cx="153.6" cy="85.333" fill="#efd27c" rx="17.067" ry="17.067" transform="matrix(.92 -.392 .392 .92 -21.152 66.986)"/><path d="m466.937 256h-63.475c-5.551 0-9.625-5.217-8.278-10.603l12.8-51.2c.95-3.799 4.363-6.464 8.279-6.464h37.875c3.916 0 7.329 2.665 8.279 6.464l12.8 51.2c1.345 5.386-2.728 10.603-8.28 10.603z" fill="#efd27c"/><path d="m504 512h-496c-4.418 0-8-3.582-8-8v-18.133c0-4.418 3.582-8 8-8h496c4.418 0 8 3.582 8 8v18.133c0 4.418-3.582 8-8 8z" fill="#4c5e71"/><path d="m503.759 477.867h-23.694c4.552 0 8.241 3.69 8.241 8.242v17.65c0 4.552-3.69 8.241-8.241 8.241h23.694c4.551 0 8.241-3.69 8.241-8.241v-17.65c0-4.552-3.69-8.242-8.241-8.242z" fill="#3c4958"/><path d="m300.573 387.382v48.109c0 4.552-3.69 8.241-8.241 8.241h23.694c4.552 0 8.241-3.69 8.241-8.241v-48.109z" fill="#be7558"/><path d="m333.333 392.533h-325.333c-4.418 0-8-3.582-8-8v-18.133c0-4.418 3.582-8 8-8h325.333c4.418 0 8 3.582 8 8v18.133c0 4.419-3.581 8-8 8z" fill="#eaa96a"/><path d="m333.092 358.4h-23.694c4.552 0 8.241 3.69 8.241 8.241v17.651c0 4.552-3.69 8.241-8.241 8.241h23.694c4.551 0 8.241-3.69 8.241-8.241v-17.651c0-4.551-3.69-8.241-8.241-8.241z" fill="#e5935d"/><path d="m358.984 0h-23.403c9.103 0 16.483 7.38 16.483 16.483v171.834c0 9.103-7.38 16.483-16.483 16.483h23.403c9.103 0 16.483-7.38 16.483-16.483v-171.834c0-9.103-7.38-16.483-16.483-16.483z" fill="#eabc73"/><path d="m317.639 42.375v98.107l23.694-3.949v-94.158c0-4.552-3.69-8.242-8.241-8.242h-23.694c4.551 0 8.241 3.69 8.241 8.242z" fill="#8dbdf7"/><path d="m333.092 170.667c4.552 0 8.241-3.69 8.241-8.241v-25.892l-62.233-62.233c-3.332-3.332-8.735-3.332-12.068 0l-62.232 62.232v34.133h128.292z" fill="#a7dda7"/><path d="m136.533 170.667 45.166-45.166c3.333-3.333 8.736-3.333 12.068 0l45.166 45.166z" fill="#8ace9b"/><path d="m317.639 162.425c0 4.552-3.69 8.241-8.241 8.241h23.694c4.552 0 8.241-3.69 8.241-8.241v-25.892l-23.694-23.694z" fill="#8ace9b"/><path d="m486.692 358.4h-23.694c4.552 0 8.241 3.69 8.241 8.241v51.784c0 4.552-3.69 8.241-8.241 8.241h23.694c4.552 0 8.241-3.69 8.241-8.241v-51.784c0-4.551-3.69-8.241-8.241-8.241z" fill="#e2dfe2"/><path d="m475.216 245.397-12.8-51.2c-.95-3.799-4.363-6.464-8.279-6.464h-23.694c3.916 0 7.329 2.665 8.279 6.464l12.8 51.2c1.346 5.386-2.727 10.603-8.279 10.603h23.694c5.552 0 9.625-5.217 8.279-10.603z" fill="#eabc73"/></g></svg>