<svg id="filled_outline" height="512" viewBox="0 0 512 512" width="512" xmlns="http://www.w3.org/2000/svg" data-name="filled outline"><path d="m440 168v304a16 16 0 0 1 -16 16h-384a16 16 0 0 1 -16-16v-304z" fill="#5771e5"/><path d="m320 288a88 88 0 1 1 -88-88 87.526 87.526 0 0 1 88 88z" fill="#89a8f5"/><path d="m308.89 330.82007a88.02755 88.02755 0 0 1 -158.89-10.82007l8.4-11.2a31.99194 31.99194 0 0 1 25.6-12.8h85.88a31.99737 31.99737 0 0 1 27.44007 15.54z" fill="#ed6445"/><path d="m24 168v-32a16 16 0 0 1 16-16h400v48z" fill="#89a8f5"/><path d="m248 264 7.80065-3.90032a14.8328 14.8328 0 0 0 8.19935-13.26686v-14.83282h-36.58361a19.41638 19.41638 0 0 0 -19.41639 19.41639 19.41651 19.41651 0 0 0 2.04984 8.68328l5.95016 11.90033h24z" fill="#b36f42"/><path d="m247.76 374.58984a88.77236 88.77236 0 0 1 -31.52 0l7.76-46.58984h16z" fill="#f7c04a"/><path d="m248 312-8 16h-16l-8-16 16-8z" fill="#f5a431"/><path d="m360 96h128v120h-128z" fill="#f7c04a"/><path d="m472 72v24h-32v-24a16 16 0 0 0 -16-16 16 16 0 0 0 -16 16v24h-32v-24a48 48 0 0 1 48-48h.0001a48 48 0 0 1 47.9999 48z" fill="#fcedc0"/><path d="m216 264 8-8a17.88853 17.88853 0 0 0 24 8v16a16 16 0 0 1 -16 16 16 16 0 0 1 -16-16z" fill="#ffceb6"/><path d="m432 472a8.00917 8.00917 0 0 1 -8 8h-384a8.00917 8.00917 0 0 1 -8-8v-296h304v-16h-304v-24a8.00917 8.00917 0 0 1 8-8h296v-16h-296a24.02718 24.02718 0 0 0 -24 24v336a24.02718 24.02718 0 0 0 24 24h384a24.02718 24.02718 0 0 0 24-24v-232h-16z"/><circle cx="48" cy="144" r="8"/><circle cx="72" cy="144" r="8"/><circle cx="96" cy="144" r="8"/><path d="m232 192a96 96 0 1 0 96 96 96.10874 96.10874 0 0 0 -96-96zm0 16a79.95273 79.95273 0 0 1 75.81616 105.47754l-3.63452-6.05762a40.2018 40.2018 0 0 0 -34.2998-19.41992h-15.258a23.88535 23.88535 0 0 0 1.37616-8v-11.05566l3.37891-1.68946a22.70843 22.70843 0 0 0 12.62109-20.42188v-14.833a8.00008 8.00008 0 0 0 -8-8h-36.5835a27.41651 27.41651 0 0 0 -24.522 39.67773l5.1055 10.21094v6.11133a23.88535 23.88535 0 0 0 1.37616 8h-25.37616a40.20821 40.20821 0 0 0 -30.68536 14.35107 79.91512 79.91512 0 0 1 78.68536-94.35107zm3.05566 112h-6.11132l-3.21027-6.42041 6.26593-6.26611 6.26593 6.26611zm-19.05566-68.584a11.42922 11.42922 0 0 1 11.4165-11.416h28.5835v6.833a6.796 6.796 0 0 1 -3.77686 6.11133l-7.80078 3.90039a9.89806 9.89806 0 0 1 -13.26709-4.42285 8.00064 8.00064 0 0 0 -12.812-2.07911l-2.27289 2.273a11.32961 11.32961 0 0 1 -.07038-1.19976zm8 28.584v-11.64941a26.05756 26.05756 0 0 0 16 5.53515v6.11426a8 8 0 0 1 -16 0zm-64.81079 41.08081 5.61059-7.4812a24.11647 24.11647 0 0 1 19.2002-9.59961h28.686l-18.34278 18.34277 11.31348 11.31446 8.15167-8.15186 1.87274 3.74561-5.92956 35.57763a79.69938 79.69938 0 0 1 -23.238-11.071l5.07575-15.2273-15.17872-5.06054-2.98156 8.94458a80.25465 80.25465 0 0 1 -14.23981-21.33354zm66.30237 46.63208 5.28542-31.71289h2.446l5.28546 31.71289c-2.14921.17383-4.31528.28711-6.50846.28711s-4.35925-.11328-6.50842-.28711zm58.03686-18.58447-3.76721-15.06885-15.52246 3.88086 5.18445 20.73779a79.48329 79.48329 0 0 1 -15.17481 6.15039l-5.92956-35.57761 1.87274-3.74561 8.15167 8.15186 11.31348-11.31446-18.34274-18.34279h18.56788a24.12126 24.12126 0 0 1 20.58007 11.65234l9.08179 15.13623a80.59994 80.59994 0 0 1 -16.0153 18.33985z"/><path d="m104 400h40v16h-40z"/><path d="m312 400h48v16h-48z"/><path d="m160 400h136v16h-136z"/><path d="m128 432h88v16h-88z"/><path d="m232 432h32v16h-32z"/><path d="m280 432h56v16h-56z"/><path d="m488 88h-8v-16a56 56 0 0 0 -112 0v16h-8a8.00008 8.00008 0 0 0 -8 8v120a8.00008 8.00008 0 0 0 8 8h128a8.00008 8.00008 0 0 0 8-8v-120a8.00008 8.00008 0 0 0 -8-8zm-104-16a40 40 0 0 1 80 0v16h-16v-16a24 24 0 0 0 -48 0v16h-16zm32 16v-16a8 8 0 0 1 16 0v16zm64 120h-112v-104h112z"/><path d="m424 136a15.99656 15.99656 0 0 0 -13.835 8h-18.165v16h18.165a15.96288 15.96288 0 0 0 27.66992 0h18.16508v-16h-18.165a15.99656 15.99656 0 0 0 -13.835-8z"/></svg>